# xmcd
#
# Track frame offsets: 
#        150
#        19434
#        35908
#        53837
#        75928
#        97043
#        117923
#        138937
#        159070
#        178775
#        197873
#
# Disc length: 2882 seconds
#
# Revision: 1
# Processed by: cddbd v1.5.2PL0 Copyright (c) Steve Scherf et al.
# Submitted via: ExactAudioCopy v1.0b3
#
DISCID=8e0b400b
DTITLE=The Rippingtons - Modern Art
DYEAR=2009
DGENRE=Jazz
TTITLE0=Modern Art
TTITLE1=Paris Groove
TTITLE2=Black Book
TTITLE3=Pastels On Canvas
TTITLE4=One Step Closer
TTITLE5=I Still Believe
TTITLE6=Body Art
TTITLE7=Age Of Reason
TTITLE8=Sweet Lullaby
TTITLE9=Jet Set
TTITLE10=Love Story
EXTD=YEAR: 2009
EXTT0=
EXTT1=
EXTT2=
EXTT3=
EXTT4=
EXTT5=
EXTT6=
EXTT7=
EXTT8=
EXTT9=
EXTT10=
PLAYORDER=
